<?xml version="1.0" encoding="UTF-8" standalone="no"?>
<svg width="800" height="600" viewBox="0 0 800 600" fill="none" xmlns="http://www.w3.org/2000/svg">
  <g opacity="0.5">
    <circle cx="50" cy="50" r="4" fill="white"/>
    <circle cx="50" cy="150" r="4" fill="white"/>
    <circle cx="50" cy="250" r="4" fill="white"/>
    <circle cx="50" cy="350" r="4" fill="white"/>
    <circle cx="50" cy="450" r="4" fill="white"/>
    <circle cx="50" cy="550" r="4" fill="white"/>
    
    <circle cx="150" cy="50" r="4" fill="white"/>
    <circle cx="150" cy="150" r="4" fill="white"/>
    <circle cx="150" cy="250" r="4" fill="white"/>
    <circle cx="150" cy="350" r="4" fill="white"/>
    <circle cx="150" cy="450" r="4" fill="white"/>
    <circle cx="150" cy="550" r="4" fill="white"/>
    
    <circle cx="250" cy="50" r="4" fill="white"/>
    <circle cx="250" cy="150" r="4" fill="white"/>
    <circle cx="250" cy="250" r="4" fill="white"/>
    <circle cx="250" cy="350" r="4" fill="white"/>
    <circle cx="250" cy="450" r="4" fill="white"/>
    <circle cx="250" cy="550" r="4" fill="white"/>
    
    <circle cx="350" cy="50" r="4" fill="white"/>
    <circle cx="350" cy="150" r="4" fill="white"/>
    <circle cx="350" cy="250" r="4" fill="white"/>
    <circle cx="350" cy="350" r="4" fill="white"/>
    <circle cx="350" cy="450" r="4" fill="white"/>
    <circle cx="350" cy="550" r="4" fill="white"/>
    
    <circle cx="450" cy="50" r="4" fill="white"/>
    <circle cx="450" cy="150" r="4" fill="white"/>
    <circle cx="450" cy="250" r="4" fill="white"/>
    <circle cx="450" cy="350" r="4" fill="white"/>
    <circle cx="450" cy="450" r="4" fill="white"/>
    <circle cx="450" cy="550" r="4" fill="white"/>
    
    <circle cx="550" cy="50" r="4" fill="white"/>
    <circle cx="550" cy="150" r="4" fill="white"/>
    <circle cx="550" cy="250" r="4" fill="white"/>
    <circle cx="550" cy="350" r="4" fill="white"/>
    <circle cx="550" cy="450" r="4" fill="white"/>
    <circle cx="550" cy="550" r="4" fill="white"/>
    
    <circle cx="650" cy="50" r="4" fill="white"/>
    <circle cx="650" cy="150" r="4" fill="white"/>
    <circle cx="650" cy="250" r="4" fill="white"/>
    <circle cx="650" cy="350" r="4" fill="white"/>
    <circle cx="650" cy="450" r="4" fill="white"/>
    <circle cx="650" cy="550" r="4" fill="white"/>
    
    <circle cx="750" cy="50" r="4" fill="white"/>
    <circle cx="750" cy="150" r="4" fill="white"/>
    <circle cx="750" cy="250" r="4" fill="white"/>
    <circle cx="750" cy="350" r="4" fill="white"/>
    <circle cx="750" cy="450" r="4" fill="white"/>
    <circle cx="750" cy="550" r="4" fill="white"/>
    
    <path d="M50 50C150 150 250 80 350 200" stroke="white" stroke-width="1" stroke-dasharray="4 4"/>
    <path d="M250 350C350 290 450 390 550 320" stroke="white" stroke-width="1" stroke-dasharray="4 4"/>
    <path d="M450 150C550 250 650 180 750 280" stroke="white" stroke-width="1" stroke-dasharray="4 4"/>
    <path d="M150 480C250 400 350 500 450 420" stroke="white" stroke-width="1" stroke-dasharray="4 4"/>
    <path d="M350 50C450 150 550 80 650 180" stroke="white" stroke-width="1" stroke-dasharray="4 4"/>
  </g>
</svg>
